<svg width="742" height="409" viewBox="0 0 742 409" fill="none" xmlns="http://www.w3.org/2000/svg">
<path d="M190.712 7.48634e-05H54.8338C40.4189 7.48634e-05 26.5945 5.38513 16.4016 14.9706C6.2088 24.556 0.482521 37.5567 0.482521 51.1126V357.788C0.482521 371.343 6.2088 384.344 16.4016 393.93C26.5945 403.515 40.4189 408.9 54.8338 408.9H190.712C205.127 408.9 218.951 403.515 229.144 393.93C239.337 384.344 245.063 371.343 245.063 357.788V51.1126C245.063 37.5567 239.337 24.556 229.144 14.9706C218.951 5.38513 205.127 7.48634e-05 190.712 7.48634e-05V7.48634e-05ZM217.888 357.788C217.888 364.566 215.024 371.066 209.928 375.859C204.832 380.651 197.919 383.344 190.712 383.344H54.8338C47.6264 383.344 40.7141 380.651 35.6177 375.859C30.5213 371.066 27.6582 364.566 27.6582 357.788V51.1126C27.6582 44.3346 30.5213 37.8343 35.6177 33.0416C40.7141 28.2488 47.6264 25.5563 54.8338 25.5563H64.4727C65.7867 25.5518 67.0734 25.9085 68.1748 26.5824C69.2762 27.2563 70.1442 28.2182 70.6721 29.3498C72.7821 33.9175 76.2652 37.8059 80.6933 40.5372C85.1215 43.2684 90.3017 44.7235 95.5973 44.7235H149.949C155.244 44.7235 160.424 43.2684 164.852 40.5372C169.281 37.8059 172.764 33.9175 174.874 29.3498C175.402 28.2182 176.27 27.2563 177.371 26.5824C178.472 25.9085 179.759 25.5518 181.073 25.5563H190.712C197.919 25.5563 204.832 28.2488 209.928 33.0416C215.024 37.8343 217.888 44.3346 217.888 51.1126V357.788Z" fill="white"/>
<path d="M51.1873 42.2859H51.1903C52.7595 42.2773 54.3077 42.595 55.7118 43.2107C57.114 43.8256 58.3321 44.7194 59.2713 45.8191V45.82C63.1651 50.4738 68.1841 54.2764 73.9481 56.9489L74.5086 57.2038C80.3204 59.8032 86.7116 61.1961 93.2039 61.2819L93.8328 61.2859H150.693C157.192 61.2843 163.604 59.9733 169.453 57.4519L170.016 57.2038C176.016 54.5205 181.235 50.6241 185.255 45.82L185.254 45.8191C186.193 44.7194 187.411 43.8256 188.813 43.2107C190.129 42.6335 191.573 42.3179 193.041 42.2878L193.335 42.2859H193.338C196.878 42.2859 200.269 43.5009 202.813 45.6579L203.056 45.8689C205.623 48.1562 207.053 51.2459 207.053 54.4528V358.448C207.053 361.555 205.711 364.55 203.294 366.814L203.056 367.031C200.488 369.32 196.993 370.615 193.338 370.615H51.1873C47.6466 370.615 44.2556 369.4 41.7118 367.243L41.4686 367.031C38.9018 364.744 37.4725 361.655 37.4725 358.448V54.4528C37.4725 51.3461 38.8136 48.3494 41.2313 46.0857L41.4686 45.8689C43.9572 43.6515 47.3153 42.3678 50.8455 42.2898L51.1873 42.2859Z" fill="white" stroke="white"/>
<path d="M190.712 7.48634e-05H54.8338C40.4189 7.48634e-05 26.5945 5.38513 16.4016 14.9706C6.2088 24.556 0.482521 37.5567 0.482521 51.1126V357.788C0.482521 371.343 6.2088 384.344 16.4016 393.93C26.5945 403.515 40.4189 408.9 54.8338 408.9H190.712C205.127 408.9 218.951 403.515 229.144 393.93C239.337 384.344 245.063 371.343 245.063 357.788V51.1126C245.063 37.5567 239.337 24.556 229.144 14.9706C218.951 5.38513 205.127 7.48634e-05 190.712 7.48634e-05V7.48634e-05ZM217.888 357.788C217.888 364.566 215.024 371.066 209.928 375.859C204.832 380.651 197.919 383.344 190.712 383.344H54.8338C47.6264 383.344 40.7141 380.651 35.6177 375.859C30.5213 371.066 27.6582 364.566 27.6582 357.788V51.1126C27.6582 44.3346 30.5213 37.8343 35.6177 33.0416C40.7141 28.2488 47.6264 25.5563 54.8338 25.5563H64.4727C65.7867 25.5518 67.0734 25.9085 68.1748 26.5824C69.2762 27.2563 70.1442 28.2182 70.6721 29.3498C72.7821 33.9175 76.2652 37.8059 80.6933 40.5372C85.1215 43.2684 90.3017 44.7235 95.5973 44.7235H149.949C155.244 44.7235 160.424 43.2684 164.852 40.5372C169.281 37.8059 172.764 33.9175 174.874 29.3498C175.402 28.2182 176.27 27.2563 177.371 26.5824C178.472 25.9085 179.759 25.5518 181.073 25.5563H190.712C197.919 25.5563 204.832 28.2488 209.928 33.0416C215.024 37.8343 217.888 44.3346 217.888 51.1126V357.788Z" fill="white"/>
<path d="M81.191 148.351C86.0134 146.208 91.2319 145.1 96.5091 145.1H156.428C162.804 145.1 169.07 146.752 174.617 149.895C178.194 151.922 181.407 154.533 184.124 157.62L185.485 159.167C188.598 162.704 191.083 166.749 192.834 171.124C194.146 174.406 195.033 177.843 195.471 181.35L195.735 183.463V184.387C195.735 186.133 194.913 187.777 193.517 188.824C192.557 189.544 191.389 189.933 190.189 189.933H124.094H62.2604C61.0252 189.933 59.8537 189.385 59.0629 188.436C58.3804 187.617 58.0382 186.567 58.1069 185.503L58.6133 177.653C58.8186 174.471 59.659 171.363 61.0849 168.511L62.1926 166.296C64.307 162.067 67.2311 158.294 70.799 155.191L71.7604 154.355C74.5882 151.897 77.7666 149.873 81.191 148.351Z" fill="#F0A92D"/>
<path d="M89.6791 279.6L173.384 279.219C177.497 279.2 181.53 278.081 185.065 275.978L185.657 275.626C188.944 273.67 191.623 270.838 193.393 267.447C194.932 264.5 195.735 261.225 195.735 257.9V252.33V248.498C195.735 246.598 194.662 244.861 192.962 244.011C191.458 243.4 189.851 243.086 188.227 243.086H158.332C155.207 243.086 152.364 244.891 151.034 247.718L150.374 249.12C149.827 250.282 148.816 251.159 147.589 251.537C145.292 252.243 142.842 251.047 141.986 248.802L141.377 247.201C140.433 244.724 138.057 243.086 135.406 243.086H125.019H62.5166C60.6338 243.086 58.9486 244.254 58.2875 246.017C58.0974 246.524 58 247.061 58 247.603V255.423L58.488 260.432C58.7713 263.34 59.6891 266.152 61.1765 268.667C65.1834 275.443 72.4706 279.6 80.3429 279.6H89.6791Z" fill="#F0A92D"/>
<rect x="58" y="215.817" width="137.735" height="8.31959" rx="4.15979" fill="#F0A92D"/>
<path d="M181.032 218.594C182.6 218.633 184.147 218.968 185.593 219.58C188.379 220.76 190.189 223.491 190.189 226.517V234.139L190.184 234.555C190.073 238.845 188.247 242.919 185.105 245.859L181.839 248.647L181.368 249.044C171.591 257.172 158.935 260.992 146.293 259.631L145.681 259.56L73.4563 250.826C69.3885 250.334 65.7788 248.005 63.6526 244.519L63.4515 244.179C62.3736 242.288 61.7749 240.165 61.7044 237.994L61.6975 237.56V229.529C61.6977 224.912 64.5931 220.81 68.9036 219.246L69.3255 219.103C70.2626 218.806 71.2348 218.635 72.2161 218.598L72.637 218.59H180.717L181.032 218.594ZM72.637 225.59C72.2324 225.59 71.8302 225.652 71.4446 225.774C69.8089 226.294 68.6977 227.813 68.6975 229.529V237.56C68.6975 238.665 68.9851 239.752 69.5325 240.712L69.7288 241.033C70.7522 242.605 72.4227 243.65 74.2972 243.877L146.522 252.611C157.627 253.954 168.787 250.586 177.294 243.323L180.393 240.678C182.177 238.971 183.189 236.61 183.189 234.139V226.517C183.189 226.329 183.091 226.157 182.934 226.061L182.864 226.025C182.269 225.774 181.636 225.629 180.993 225.597L180.717 225.59H72.637Z" fill="#F0A92D"/>
<path d="M194.349 220.372C194.349 217.6 191.729 215.576 189.047 216.275L170.457 221.125C165.373 222.451 161.109 225.907 158.759 230.607L152.289 245.397L149.293 251.055C148.59 252.384 148.765 254.007 149.736 255.155C151.409 257.131 154.545 256.809 155.781 254.533L166.607 234.59C169.222 229.774 174.014 226.529 179.456 225.888L190.61 224.576C192.742 224.325 194.349 222.518 194.349 220.372Z" fill="#F0A92D"/>
<path d="M96.8247 220.372C96.8247 217.6 99.4445 215.576 102.127 216.275L120.716 221.125C125.8 222.451 130.064 225.907 132.414 230.607L140.734 245.86L143.406 252.095C144.247 254.058 143.446 256.338 141.562 257.343C139.568 258.406 137.091 257.662 136.013 255.676L124.567 234.59C121.952 229.774 117.16 226.529 111.717 225.888L100.563 224.576C98.4315 224.325 96.8247 222.518 96.8247 220.372Z" fill="#F0A92D"/>
<path d="M67.1775 204.686L73.2313 201.413C78.0335 198.818 83.7765 198.629 88.7384 200.905V200.905C92.7403 202.741 97.2897 202.989 101.467 201.599L104.537 200.578C109.126 199.051 114.105 199.184 118.606 200.954V200.954C123.213 202.765 128.317 202.86 132.989 201.222L134.696 200.624C139.103 199.079 143.938 199.303 148.183 201.25V201.25C152.94 203.432 158.411 203.44 163.174 201.272L163.6 201.078C168.859 198.684 174.921 198.805 180.081 201.408C181.7 202.225 183.334 203.05 184.745 203.762" stroke="#F0A92D" stroke-width="11"/>
<mask id="path-11-inside-1_1_2" fill="white">
<path d="M64.7848 200.191C63.4758 200.905 62.4844 202.057 62.0288 203.394C61.5731 204.732 61.6905 206.145 62.3552 207.324C63.0199 208.502 64.1773 209.349 65.5729 209.678C66.9685 210.007 68.4879 209.792 69.797 209.078L67.2909 204.635L64.7848 200.191Z"/>
</mask>
<path d="M64.7848 200.191C63.4758 200.905 62.4844 202.057 62.0288 203.394C61.5731 204.732 61.6905 206.145 62.3552 207.324C63.0199 208.502 64.1773 209.349 65.5729 209.678C66.9685 210.007 68.4879 209.792 69.797 209.078L67.2909 204.635L64.7848 200.191Z" fill="#F0A92D" stroke="#F0A92D" stroke-width="2" mask="url(#path-11-inside-1_1_2)"/>
<mask id="path-12-inside-2_1_2" fill="white">
<path d="M182.256 204.263C182.923 204.607 183.644 204.831 184.377 204.921C185.111 205.01 185.843 204.965 186.531 204.786C187.22 204.607 187.851 204.299 188.39 203.879C188.928 203.458 189.363 202.935 189.67 202.337C189.976 201.74 190.148 201.08 190.176 200.396C190.204 199.712 190.088 199.018 189.833 198.351C189.578 197.685 189.19 197.061 188.691 196.514C188.192 195.967 187.592 195.508 186.925 195.163L184.59 199.713L182.256 204.263Z"/>
</mask>
<path d="M182.256 204.263C182.923 204.607 183.644 204.831 184.377 204.921C185.111 205.01 185.843 204.965 186.531 204.786C187.22 204.607 187.851 204.299 188.39 203.879C188.928 203.458 189.363 202.935 189.67 202.337C189.976 201.74 190.148 201.08 190.176 200.396C190.204 199.712 190.088 199.018 189.833 198.351C189.578 197.685 189.19 197.061 188.691 196.514C188.192 195.967 187.592 195.508 186.925 195.163L184.59 199.713L182.256 204.263Z" fill="#F0A92D" stroke="#F0A92D" stroke-width="2" mask="url(#path-12-inside-2_1_2)"/>
<path d="M663.864 201.552L695.096 270.16C695.736 271.568 696.12 272.72 696.504 274H670.392C670.136 272.848 669.752 271.952 669.368 271.056L664.76 260.56H613.56L609.08 270.928C608.696 271.952 608.312 272.976 608.184 274H581.432C581.816 272.72 582.2 271.568 582.84 270.16L613.816 201.552C618.68 190.8 626.488 185.552 638.904 185.552C650.936 185.552 659 190.8 663.864 201.552ZM622.008 241.488H656.312L643 210.512C642.232 208.592 640.696 207.824 639.032 207.824C637.496 207.824 636.088 208.464 635.192 210.512L622.008 241.488ZM706.778 187.472H730.074V274H706.778V187.472Z" fill="#F0A92D"/>
<path d="M291.808 218.96H342.368V233.68H291.808L291.68 273.872H277.6V198.864C277.6 194.085 278.453 190.373 280.16 187.728C281.952 184.912 283.829 182.907 285.792 181.712C288.011 180.091 290.741 179.152 293.984 178.896H351.072V193.616H291.808V218.96ZM417.456 205.648C419.419 205.648 421.339 206.117 423.216 207.056C424.581 207.653 425.904 208.805 427.184 210.512C427.867 211.365 428.336 212.645 428.592 214.352C428.933 216.059 429.104 217.68 429.104 219.216V274H369.584C366 274 363.141 273.403 361.008 272.208C358.875 270.928 357.339 269.605 356.4 268.24C355.376 266.619 354.736 264.699 354.48 262.48V243.28C354.48 239.952 355.291 237.435 356.912 235.728C358.363 234.021 360.155 232.741 362.288 231.888C364.763 230.949 367.408 230.437 370.224 230.352H415.28V220.112H366V205.648H417.456ZM415.28 259.408V244.688H370.864V259.408H415.28ZM446.6 274.128V179.024H460.808V274.128H446.6ZM536.081 205.648C538.044 205.648 539.964 206.117 541.841 207.056C543.206 207.653 544.529 208.805 545.809 210.512C546.492 211.365 546.961 212.645 547.217 214.352C547.558 216.059 547.729 217.68 547.729 219.216V274H488.209C484.625 274 481.766 273.403 479.633 272.208C477.5 270.928 475.964 269.605 475.025 268.24C474.001 266.619 473.361 264.699 473.105 262.48V243.28C473.105 239.952 473.916 237.435 475.537 235.728C476.988 234.021 478.78 232.741 480.913 231.888C483.388 230.949 486.033 230.437 488.849 230.352H533.905V220.112H484.625V205.648H536.081ZM533.905 259.408V244.688H489.489V259.408H533.905Z" fill="white"/>
</svg>
